<svg version="1" xmlns="http://www.w3.org/2000/svg" width="170.667" height="170.667" viewBox="0 0 128.000000 128.000000"><path d="M47.5 2.4C25.7 8.4 9.4 24.3 2.4 46.5 1 51 .5 55.3.6 64c0 13.2 1 17.2 6.6 29 5.6 11.6 16.2 22.2 28 27.9 11.9 5.7 17.8 7 31.1 6.7 17.7-.4 31.2-6 42.1-17.3 8.3-8.5 14.5-21.3 16.2-33.8.8-5.6.7-22.2-.2-23.6-.3-.5-13.5-.9-30.5-.9H64v25h35.1l-.6 2.2c-2.8 9.3-9 16.3-18.4 20.6-7.5 3.5-19.5 4-27.5 1.2-22.3-7.6-33-32.5-23-53.5 9.7-20.7 35.7-28.9 53.5-16.9 2.8 1.9 5.4 3.4 5.8 3.4C90 34 106 17.6 106 16.5c-.1-1.4-7.5-6.7-13.6-9.8C79.5.2 61.7-1.6 47.5 2.4z"/></svg>